<?xml version="1.0" standalone="no"?>
<!DOCTYPE svg PUBLIC "-//W3C//DTD SVG 20010904//EN"
 "http://www.w3.org/TR/2001/REC-SVG-20010904/DTD/svg10.dtd">
<svg version="1.0" xmlns="http://www.w3.org/2000/svg"
 width="700.000000pt" height="700.000000pt" viewBox="0 0 700.000000 700.000000"
 preserveAspectRatio="xMidYMid meet">
<metadata>
Created by potrace 1.11, written by Peter Selinger 2001-2013
</metadata>
<g transform="translate(0.000000,700.000000) scale(0.100000,-0.100000)"
fill="#000000" stroke="none">
<path d="M0 3500 l0 -3500 3500 0 3500 0 0 3500 0 3500 -3500 0 -3500 0 0
-3500z m5204 955 c101 -13 213 -35 269 -51 15 -5 17 -21 17 -154 l0 -149 -42
19 c-76 33 -220 70 -318 81 -215 25 -343 -36 -327 -155 11 -78 52 -99 302
-151 246 -51 359 -109 422 -214 42 -71 57 -145 50 -256 -17 -296 -219 -431
-616 -412 -146 7 -258 27 -388 68 l-93 30 0 149 c0 83 4 150 9 150 4 0 47 -18
95 -41 155 -72 363 -112 479 -90 125 23 171 67 164 159 -7 92 -52 118 -290
172 -193 43 -274 76 -352 143 -150 129 -151 432 -2 581 67 66 170 112 292 129
70 10 222 6 329 -8z m-3214 -25 c214 -27 326 -76 445 -195 140 -140 189 -269
189 -495 0 -155 -15 -222 -72 -340 -48 -98 -158 -210 -257 -262 -151 -79 -288
-98 -705 -98 l-290 0 0 700 0 700 303 0 c166 0 341 -5 387 -10z m1717 -18
c253 -56 434 -223 498 -457 9 -33 19 -112 22 -176 11 -226 -48 -392 -185 -529
-80 -79 -132 -114 -229 -150 -122 -46 -180 -52 -550 -57 l-353 -5 0 702 0 702
353 -5 c308 -4 363 -7 444 -25z"/>
<path d="M1670 3739 l0 -432 128 5 c93 4 144 12 191 28 177 60 261 188 261
399 0 154 -35 248 -121 325 -81 74 -191 106 -361 106 l-98 0 0 -431z"/>
<path d="M3270 3740 l0 -430 88 0 c239 0 380 67 451 213 36 73 56 187 46 266
-30 266 -175 380 -482 381 l-103 0 0 -430z"/>
</g>
</svg>
